# xmcd
#
# Track frame offsets: 
#        150
#        15638
#        30558
#        43403
#        62723
#        82639
#        99822
#        117425
#        137414
#        148923
#        166750
#        195855
#        207000
#        222575
#        244735
#        261663
#        271677
#        284386
#        302403
#        318122
#
# Disc length: 4344 seconds
#
# Revision: 0
# Processed by: cddbd v1.5.2PL0 Copyright (c) Steve Scherf et al.
# Submitted via: ExactAudioCopy v1.3
#
DISCID=1110f614
DTITLE=Various Artist - Joy: The Ultimate Christmas Celebration
DYEAR=2018
DGENRE=Southern Gospel
TTITLE0=Trey Ivey - Christmas Prelude
TTITLE1=4th and Main - Imagine This Christmas
TTITLE2=Jody McBrayer - O Come All Ye Faithful
TTITLE3=Southern Raised - Carol of the Bells
TTITLE4=Taylors - Love Lighting the Dark
TTITLE5=Wayne Haun - Light a Candle
TTITLE6=Taranda - Auld Lang Syne
TTITLE7=Collingsworth Family - Who Is He In Yonder Stall?
TTITLE8=Blaine Johnson - Go Tell It On The Mountain
TTITLE9=Doug Anderson - Peace On The Earth
TTITLE10=Triumphant - Celebration Medley
TTITLE11=Tim Lovelace - Some Assembly Required
TTITLE12=George Younce - Silent Night
TTITLE13=Ernie Haase and Signature Sound - What Child Is This?
TTITLE14=Ann Downing - Joy To The World
TTITLE15=Tracey Phillips - I Wonder As I Wonder
TTITLE16=Janet Paschal - Let The Lower Lights Be Burning
TTITLE17=Browns - English Carol Medley
TTITLE18=Lillie Knauls - Hark! The Herald Angels Sing
TTITLE19=Perrys - We Wish You A Merry Christmas
EXTD=
EXTT0=
EXTT1=
EXTT2=
EXTT3=
EXTT4=
EXTT5=
EXTT6=
EXTT7=
EXTT8=
EXTT9=
EXTT10=
EXTT11=
EXTT12=
EXTT13=
EXTT14=
EXTT15=
EXTT16=
EXTT17=
EXTT18=
EXTT19=
PLAYORDER=
